<svg width="35" height="35" viewBox="0 0 35 35" fill="none" xmlns="http://www.w3.org/2000/svg">
<rect width="35" height="35" rx="8" fill="#461378"/>
<path fill-rule="evenodd" clip-rule="evenodd" d="M18.202 12.9466L17.1667 13.9819C16.9641 14.1776 16.6929 14.2858 16.4113 14.2834C16.1297 14.2809 15.8603 14.168 15.6612 13.9689C15.462 13.7697 15.3491 13.5004 15.3466 13.2188C15.3442 12.9372 15.4524 12.6659 15.6481 12.4633L16.6834 11.4269C17.597 10.5133 18.8362 10 20.1283 10C21.4203 10 22.6595 10.5133 23.5731 11.4269C24.4867 12.3405 25 13.5797 25 14.8717C25 16.1638 24.4867 17.403 23.5731 18.3166L22.5367 19.3519C22.4376 19.4545 22.3191 19.5363 22.1881 19.5926C22.057 19.6489 21.9161 19.6785 21.7735 19.6798C21.6309 19.681 21.4895 19.6538 21.3575 19.5998C21.2255 19.5458 21.1056 19.4661 21.0047 19.3652C20.9039 19.2644 20.8242 19.1445 20.7702 19.0125C20.7162 18.8805 20.689 18.7391 20.6902 18.5965C20.6915 18.4539 20.7211 18.3129 20.7774 18.1819C20.8337 18.0509 20.9155 17.9324 21.0181 17.8333L22.0534 16.7969C22.5403 16.2815 22.807 15.5967 22.797 14.8878C22.7869 14.1789 22.5008 13.5018 21.9995 13.0005C21.4982 12.4992 20.8211 12.2131 20.1122 12.203C19.4033 12.193 18.7185 12.4597 18.2031 12.9466H18.202ZM13.9447 15.6853C14.1461 15.8867 14.2592 16.1598 14.2592 16.4446C14.2592 16.7294 14.1461 17.0025 13.9447 17.2039L12.9094 18.2403C12.4225 18.7557 12.1558 19.4406 12.1658 20.1495C12.1759 20.8584 12.462 21.5354 12.9633 22.0367C13.4646 22.538 14.1416 22.8241 14.8505 22.8342C15.5594 22.8443 16.2443 22.5775 16.7597 22.0906L17.7961 21.0553C17.9986 20.8596 18.2699 20.7514 18.5515 20.7538C18.8331 20.7563 19.1025 20.8692 19.3016 21.0684C19.5007 21.2675 19.6137 21.5369 19.6161 21.8185C19.6186 22.1001 19.5103 22.3714 19.3147 22.5739L18.2794 23.6093C17.3625 24.5067 16.1287 25.0062 14.8458 24.9994C13.5628 24.9926 12.3344 24.48 11.4271 23.5729C10.5199 22.6657 10.0071 21.4374 10.0001 20.1544C9.99306 18.8715 10.4924 17.6376 11.3897 16.7206L12.4261 15.6853C12.6275 15.484 12.9006 15.3708 13.1854 15.3708C13.4702 15.3708 13.7433 15.484 13.9447 15.6853ZM19.8517 16.6669C20.0473 16.4644 20.1556 16.1931 20.1531 15.9115C20.1507 15.6299 20.0377 15.3605 19.8386 15.1614C19.6395 14.9623 19.3701 14.8493 19.0885 14.8469C18.8069 14.8444 18.5356 14.9527 18.3331 15.1483L15.1111 18.3703C14.9154 18.5729 14.8072 18.8441 14.8096 19.1257C14.8121 19.4073 14.925 19.6767 15.1242 19.8758C15.3233 20.075 15.5927 20.1879 15.8743 20.1904C16.1559 20.1928 16.4271 20.0846 16.6297 19.8889L19.8517 16.6669Z" fill="white"/>
</svg>
