<svg width="35" height="35" viewBox="0 0 35 35" fill="none" xmlns="http://www.w3.org/2000/svg">
<rect width="35" height="35" rx="8" fill="#461378"/>
<path fill-rule="evenodd" clip-rule="evenodd" d="M18.4479 9.91797H12.625C12.194 9.91797 11.7807 10.0892 11.476 10.3939C11.1712 10.6987 11 11.112 11 11.543V23.4596C11 23.8906 11.1712 24.304 11.476 24.6087C11.7807 24.9135 12.194 25.0846 12.625 25.0846H22.375C22.8059 25.0846 23.2193 24.9135 23.5241 24.6087C23.8288 24.304 24 23.8906 24 23.4596V15.4701H19.125C18.7511 15.4701 18.4479 15.1669 18.4479 14.793V9.91797ZM23.5473 14.1159L19.8021 10.3707V14.1159H23.5473Z" fill="white"/>
</svg>
